<svg xmlns="http://www.w3.org/2000/svg" version="1.1" xmlns:xlink="http://www.w3.org/1999/xlink" viewBox="0 0 8.137553737556916 8.137553737556916"><g transform="matrix(0.8571428571428571,0,0,0.8571428571428571,2.813455293680751,3.0456875216018195)"><g><path d=" M -0.7176049940939935 1.2031867222415633 Q -0.7207422046261178 1.226228129014526 -0.7290226313573687 1.2400352395431047 Q -0.9049751921690832 1.216078359115973 -1.2265614831218 1.141356846756582 L -1.3331537559775286 1.1172429674036057 Q -1.3529548860952607 1.1294814726661224 -1.3913941755818628 1.1375821643041986 Q -1.429833465068465 1.145682855942275 -1.4444961784694412 1.143686449240014 L -1.4474955880052032 1.1422113111323169 Q -1.4512571332549975 1.1384988992028904 -1.447696920769045 1.0888462742062714 Q -1.4441367082830923 1.0391936492096525 -1.436079781234682 0.9800191272699984 Q -1.4280228541862714 0.9208446053303444 -1.4220731684351153 0.9163209243665176 Q -1.4161234826839593 0.9117972434026906 -1.2837875931828981 0.8839451242155814 Q -1.151451703681837 0.8560930050284721 -1.0793328733095577 0.843510566523381 Q -1.0738109889946004 0.842128895574049 -1.0733831875584015 0.8389868855595541 Q -1.0729553861222028 0.8358448755450592 -1.0944749212082856 0.8254476085518132 Q -1.1159944562943687 0.8150503415585671 -1.243304594166521 0.7433120097949727 Q -1.3706147320386735 0.6715736780313782 -1.385995247315685 0.6513447464774473 Q -1.3941378730505734 0.6406353121253664 -1.3815890309220757 0.5484696850335159 Q -1.3690401887935781 0.4563040579416654 -1.3638035054360866 0.45701706033533007 Q -1.3459987820206156 0.45944126847378974 -1.3039357482805813 0.4795695336457997 Q -1.2618727145405473 0.49969779881780974 -1.2453513954336726 0.5115480369997542 Q -0.9083546538130587 0.5200956052556515 -0.6528045059674732 0.5548901220664856 Q -0.6423311392524902 0.5563161268538148 -0.6392040969334382 0.599945366118726 Q -0.6360770546143861 0.643574605383637 -0.6397846670614422 0.6708053588425928 Q -0.6434922795084983 0.6980361123015486 -0.6476816261944915 0.6974657103866169 Q -0.6901946282897231 0.688477080744072 -0.7860259337318176 0.6754291369400092 Q -0.8818572391739122 0.6623811931359463 -1.0145346621763627 0.6496502161730892 Q -1.1796795219952607 0.6324986243695111 -1.1806777253463911 0.6398299810699992 L -1.175249308189799 0.6469696039713867 Q -1.1393498609190202 0.673192555114471 -1.051676148907257 0.7187325023951651 Q -0.9640024368954937 0.7642724496758591 -0.8936834799440041 0.7962485532886282 L -0.8244118596640128 0.8280820564226645 Q -0.8136041586711961 0.8348873450462182 -0.8170978704001528 0.8605470934979265 Q -0.8205915821291095 0.886206841949635 -0.8259438995639647 0.9020127589216598 Q -0.8312962169988201 0.9178186758936847 -0.8345808274920479 0.9184382111289842 Q -0.8465293323147279 0.920011615877417 -1.0272296430214412 0.9583467007442502 Q -1.2079299537281543 0.9966817856110836 -1.220734061423232 1.004539210388506 Q -1.2274458828884205 1.0068256175306034 -1.2277310838458866 1.0089202908736001 Q -1.2280162848033522 1.0110149642165966 -1.220827528581597 1.0130605042392253 Q -1.1280867000924444 1.0448892078908911 -0.9432317775729943 1.0700581923872527 Q -0.7583768550535441 1.0952271768836144 -0.7283384258579271 1.0939833069306446 Q -0.7067673577102911 1.1235891352076925 -0.7176049940939935 1.2031867222415633 M -0.9837713549148502 0.2500600312638556 L -1.0867426175286226 0.2007687677303901 Q -1.1279186199212754 0.18152480171607194 -1.1326440139119558 0.18164982824463088 Q -1.1481002848997854 0.18726034917862344 -1.1961505524751808 0.1852215926500203 Q -1.244200820050576 0.18318283612141717 -1.2556917974624793 0.1778124270011423 Q -1.261302318396472 0.1623561560133125 -1.1091407266553515 -0.16322153732394384 Q -1.0715478628134274 -0.24365837920726607 -1.0677175370094598 -0.24186824283384123 Q -1.0476083265386291 -0.23247002687336016 -1.027920364150715 -0.2121846507550309 Q -1.008232401762801 -0.19189927463670164 -0.9985677879781626 -0.17513165800094277 Q -0.9889031741935242 -0.1583640413651839 -0.9923534497901151 -0.1547262259757547 Q -0.9958037253867061 -0.15108841058632527 -1.0121387197942089 -0.11613668762511986 Q -1.0284737142017115 -0.08118496466391445 -1.0532543137404031 -0.0169282669293358 Q -1.0780349132790947 0.04732843080524274 -1.0749746291332807 0.05575912407133177 Q -1.0719143449874664 0.06418981733742068 -0.9723258740843057 0.1107333630464693 L -0.9316599190492884 0.12857221351643933 Q -0.9147161367660308 0.08982142138340588 -0.8798084774842444 0.015130068206035352 Q -0.8449008182024579 -0.05956128497133528 -0.8420280738494821 -0.05821868269126651 Q -0.8075551416137726 -0.04210745533044202 -0.7742472131086935 0.0014610677877512357 Q -0.7629537167330287 0.01723984634037834 -0.7648063663707332 0.018707475149006003 Q -0.7764422527979953 0.04360459287479618 -0.8003277841499745 0.10594612770739087 Q -0.8242133155019538 0.1682876625399855 -0.8229431677295646 0.18054868161004228 Q -0.8224331203719288 0.18195379715439042 -0.7429538599395986 0.21909912690295807 Q -0.6634745995072684 0.25624445665152573 -0.6564490217855276 0.2536942198633473 Q -0.6339671730759568 0.24553346214117622 -0.5641518545123839 0.09615075578643506 Q -0.535957206630941 0.035823124373943416 -0.5294629916555755 0.013189963125374127 Q -0.5229687766802101 -0.009443198123195162 -0.5220111952292181 -0.008995664029838979 Q -0.49902924040541186 0.0017451542107107532 -0.4745895980163779 0.031835082507337464 Q -0.450149955627344 0.06192501080396412 -0.44192668464089346 0.08676955650887491 Q -0.4368262110645365 0.10082071195235653 -0.5126832398884187 0.2631307678954888 Q -0.5885402687123008 0.42544082383862103 -0.5988861248803736 0.4276060397977227 Q -0.6063592366954708 0.4311138580368931 -0.6939779394612323 0.39016448849479746 Q -0.781596642226994 0.34921511895270174 -0.8783748820414584 0.30165147852838176 Q -0.9017517989377416 0.3117273991525367 -0.9416938808118451 0.3123113339197915 Q -0.9816359626859487 0.3128952686870463 -1.004617917509755 0.3021544504464967 Q -1.0055754989607468 0.3017069163531404 -0.9837713549148502 0.2500600312638556 M -0.3134726039833924 -0.5252536850882812 Q -0.33964454560944907 -0.5752483691434112 -0.38474328022191284 -0.6135863007563003 Q -0.4298420148343767 -0.6519242323691894 -0.47534484786027137 -0.6628594753416865 Q -0.520847680886166 -0.6737947183141837 -0.5558413989773001 -0.666085106948607 Q -0.5908351170684343 -0.6583754955830303 -0.6252656734329548 -0.6390886634318038 Q -0.6783410841355492 -0.609292716345817 -0.7118867742968271 -0.5698313235599112 Q -0.7207866512783907 -0.5593619744534464 -0.7199813167317395 -0.5586773685317876 Q -0.7191362163567927 -0.5482477852536186 -0.5347146051736817 -0.39147302919376864 Q -0.35029299399057084 -0.23469827313391872 -0.3398634107124017 -0.23554337350886553 Q -0.33688352977578195 -0.23578483075885034 -0.32832595575504786 -0.2458515125919896 Q -0.31976838173431366 -0.25591819442512886 -0.30794827255857393 -0.281246466816344 Q -0.2961281633828342 -0.30657473920755923 -0.2882132827453051 -0.3477085965393688 Q -0.28029840210777607 -0.38884245387117844 -0.28379953223255583 -0.4320507274521647 Q -0.2873006623573356 -0.47525900103315105 -0.3134726039833924 -0.5252536850882812 M -0.4807260115603915 -0.1693895054787956 L -0.7967793397226153 -0.4422248481739487 Q -0.8180006921539308 -0.4450044688289846 -0.8646710456014539 -0.4610941391280701 Q -0.9113413990489769 -0.47718380942715566 -0.9181867426955116 -0.4830029597612549 Q -0.9250320863420463 -0.48882211009535415 -0.9251528149670386 -0.490312050563664 Q -0.9263601012169628 -0.5052114552467627 -0.8524226616778195 -0.5921875862850857 Q -0.710024629972803 -0.7596971719885228 -0.5622577523058876 -0.7915419278491174 Q -0.4144908746389723 -0.8233866837097119 -0.2969120308279059 -0.7234342191475368 Q -0.23892794346902385 -0.674142592788108 -0.20595113959478079 -0.6142012399547784 Q -0.17297433572053775 -0.5542598871214488 -0.16591028001837665 -0.4948433613265425 Q -0.15884622431621565 -0.43542683553163625 -0.16599696737549458 -0.375608358033457 Q -0.17314771043477348 -0.3157898805352778 -0.19493580244296588 -0.2607842429729102 Q -0.23875344370933538 -0.15375284878479475 -0.2969449470503277 -0.08529941231944792 Q -0.32432918391667703 -0.053086030453402336 -0.3332688267265363 -0.0523616587034479 Q -0.3422084695363955 -0.05163728695349347 -0.4807260115603915 -0.1693895054787956 M 0.15706556516046782 -0.699793405969392 Q 0.16042532518563446 -0.7023601152582075 0.1921883526347276 -0.6607830849467705 Q 0.22395138008382073 -0.6192060546353335 0.21891174004607078 -0.61535599070211 Q 0.09712043913378043 -0.5223127789825442 0.05318770124826064 -0.47012794759561527 Q 0.05066788122938566 -0.46820291562900357 0.02243407905241398 -0.5051602759058365 Q -0.005799723124557704 -0.5421176361826694 -0.005695238980351222 -0.5541688374947217 Q 0.0005339771619252628 -0.5669086053989184 0.02321235733180002 -0.5842338930984238 Q -0.00028455163571596 -0.6115084986679323 -0.1340742733152295 -0.7866359899797429 Q -0.2678639949947431 -0.9617634812915535 -0.2829146146294018 -0.9901700680913228 L -0.2845944946419851 -0.988886713446915 Q -0.3072728748118599 -0.9715614257474097 -0.3185417309918863 -0.9549715939099894 Q -0.3202216110044696 -0.9536882392655817 -0.3494179291647472 -0.9919055095518521 Q -0.3786142473250247 -1.0301227798381225 -0.37742467122049816 -1.039012483809096 Q -0.37623509511597164 -1.0479021877800692 -0.3172879212614085 -1.0995860096546162 Q -0.2583407474068453 -1.1512698315291634 -0.21634374709226245 -1.1833536976393584 Q -0.2138239270733875 -1.1852787296059701 -0.20355708991812504 -1.1718396895053036 L -0.15859278809391125 -1.1077590970731093 Q -0.15602607880509567 -1.1043993370479426 -0.15854589882397066 -1.1024743050813308 Q -0.187103859037887 -1.0806572761263982 -0.18782122306716445 -1.078114011472553 Q -0.18853858709644195 -1.0755707468187077 -0.16371143421457754 -1.0413314692448374 Q -0.06568617733152765 -0.9060542389619399 0.008427553383023034 -0.8090411682352534 Q 0.08254128409757369 -0.712028097508567 0.12326970222471373 -0.6726446957527403 Q 0.1335472449843014 -0.6818264409476827 0.15706556516046782 -0.699793405969392 M 0.21595331935103199 -0.8367966937621674 Q 0.202837935793716 -0.8422929454980767 0.18997552837065343 -0.8695334296261743 Q 0.17711312094759085 -0.8967739137542721 0.18311386660297502 -0.9112964163133832 L 0.656238064617304 -1.134696124187628 Q 0.668848954255145 -1.1277927534499237 0.6814857054076277 -1.1010301725521436 Q 0.6941224565601102 -1.0742675916543634 0.690033323825996 -1.0606477141775725 L 0.21595331935103199 -0.8367966937621674 M 1.1518928489391618 -0.9559207577465697 Q 0.9997761046843183 -0.9299250696174481 0.9066775182325412 -1.0040903429580148 Q 0.8135789317807639 -1.0782556162985815 0.7898979282110846 -1.2168277189416923 Q 0.7697779778097782 -1.3345619114129066 0.8046016453729109 -1.444528408667536 Q 0.824667613592298 -1.5090799797515813 0.8628547516584685 -1.5617158035915786 Q 0.901041889724639 -1.6143516274315761 0.9741985784335283 -1.656878651053629 Q 1.0473552671424178 -1.699405674675682 1.1463353404589254 -1.7163206772254531 Q 1.1796759967339596 -1.7220183622948495 1.206791700399342 -1.7202183057037466 Q 1.2339074040647242 -1.7184182491126436 1.2342635093815615 -1.7163344580954543 Q 1.2428100369856563 -1.666323473682903 1.2469879546725364 -1.6010895576246003 Q 1.2511658723594166 -1.5358556415662978 1.2503020295092404 -1.5346356933992844 Q 1.2459828152583594 -1.528535952564217 1.2099122084372536 -1.5105761799373938 Q 1.173841601616148 -1.4926164073105703 1.155087482461441 -1.4894114594590349 L 1.1540191665109294 -1.4956628325106036 Q 1.1460067968820904 -1.5425481303973705 1.1292572074188223 -1.5589875649926348 Q 1.1125076179555542 -1.5754269995878993 1.07916696168052 -1.569729314518503 Q 1.0051923805702878 -1.5570875757707792 0.9549016775981927 -1.4686051482169282 Q 0.9046109746260975 -1.380122720663077 0.9277578202205209 -1.2446763045457507 Q 0.9400434536514071 -1.1727855144527082 0.9852607971566563 -1.121535051866227 Q 1.0091784434055036 -1.094525029968513 1.0483287863035602 -1.0819137275292494 Q 1.087479129201617 -1.0693024250899856 1.1364482181055735 -1.077670900035662 Q 1.2343863959134864 -1.094407849927014 1.3116245148960035 -1.2008994457740223 Q 1.315792096930383 -1.2016116564076968 1.3310414490180509 -1.1908136207804947 Q 1.346290801105719 -1.1800155851532925 1.3625326530356485 -1.160272411373825 Q 1.3957021470872646 -1.1230479074904984 1.3973046210130322 -1.113670847913145 Q 1.3989070949388 -1.1042937883357915 1.3709706243036175 -1.0732477159642406 Q 1.3430341536684347 -1.0422016435926897 1.2818460530874272 -1.004936938397445 Q 1.2206579525064198 -0.9676722332022001 1.1518928489391618 -0.9559207577465697 M 1.7232183554215568 -0.9634981722224703 Q 1.5669387871069729 -0.9830107726746737 1.5032078777405082 -1.0825758317846519 Q 1.4394769683740436 -1.1821408908946303 1.456501384875966 -1.3184921921086965 Q 1.4647516790268977 -1.3845701303893596 1.487687159225488 -1.4402928636143195 Q 1.5106226394240783 -1.4960155968392796 1.527269781695825 -1.5184368469423455 Q 1.5439169239675719 -1.540858097045411 1.5528970799981194 -1.5445302933796259 Q 1.561877236028667 -1.5482024897138404 1.619564325003849 -1.540999851963027 L 1.6394925921043662 -1.5385116680127462 Q 1.6460404446051058 -1.5909544761720025 1.671338550637763 -1.6272084917345637 Q 1.69663665667042 -1.6634625072971252 1.7315084246294252 -1.6782822496839989 Q 1.7966636647446506 -1.7052989941682504 1.851204185230277 -1.6984892275674812 Q 2.142786198595742 -1.66208316766337 2.096951231090566 -1.2949835105485759 Q 2.082676912638954 -1.1806581887613972 2.0327378853498472 -1.0963508257412087 Q 2.0044259675222498 -1.048755827958633 1.9642468397484454 -1.0170228300292492 Q 1.924067711974641 -0.9852898320998651 1.861926283654356 -0.9696140698356278 Q 1.799784855334071 -0.9539383075713906 1.7232183554215568 -0.9634981722224703 M 1.962696442439803 -1.3202678193059647 Q 1.9934713491932783 -1.5667490176544694 1.8466314863473607 -1.5850830046565396 Q 1.8046772398199558 -1.5903212866571312 1.7791148201611353 -1.5690131714791913 Q 1.7535524005023149 -1.5477050563012513 1.74890342522679 -1.5104706625081794 Q 1.7442544499512649 -1.4732362687151075 1.7615677752222205 -1.4199446392568886 Q 1.778881100493176 -1.3666530097986698 1.7993379948460198 -1.3342730250791461 L 1.8187460330356786 -1.3020239974096373 Q 1.817174548435501 -1.2894377234514158 1.776991821372496 -1.283270144588519 Q 1.7368090943094912 -1.2771025657256225 1.7137342587194184 -1.2799836208259479 Q 1.7084899779034928 -1.2806384060760219 1.6947208913244043 -1.3025965074517685 Q 1.6809518047453158 -1.324554608827515 1.6646230568756049 -1.3686690467986307 Q 1.648294309005894 -1.4127834847697462 1.6446167137378784 -1.460111769400025 Q 1.6269195155398797 -1.44634328270247 1.6114557857705334 -1.3992745126460873 Q 1.5959920560011869 -1.3522057425897045 1.590360902850551 -1.3071049275727442 Q 1.5793605106493087 -1.2190010098651936 1.6208648058431296 -1.1504390868049834 Q 1.6623691010369508 -1.0818771637447733 1.7378867447862798 -1.0724482561437085 Q 1.9287785664859727 -1.048614073041017 1.962696442439803 -1.3202678193059647 M 2.1726208568478773 -0.8718625861689154 Q 2.1534087483954725 -0.880682704581558 2.1406850971573412 -0.8935024318473933 L 2.153915274776305 -0.9223205945260006 Q 2.22138918063302 -1.0692932241868975 2.3593279577631705 -1.3444193429630666 L 2.4059479537549673 -1.4358340452747016 Q 2.4009571839116504 -1.4578974144274632 2.40504633223197 -1.4984720863610037 Q 2.4091354805522895 -1.539046758294544 2.4128840308776627 -1.547211904386816 Q 2.4166325812030354 -1.555377050479088 2.4194358038895403 -1.5564162494830645 Q 2.422239026576045 -1.5574554484870407 2.470371910295339 -1.5394287803155535 Q 2.5185047940146332 -1.5214021121440662 2.5679759732795757 -1.4986903072315119 Q 2.617447152544518 -1.4759785023189576 2.621005755477079 -1.4685294396820634 Q 2.6163945707105407 -1.010071644372562 2.6162286423246544 -1.0008432802693874 Q 2.6160627139387684 -0.9916149161662131 2.6179839247840087 -0.9907329043249489 L 2.6249133879189146 -0.995693118600762 L 2.637261553696614 -1.0225900704341289 Q 2.674747056950345 -1.1042415313568494 2.725471479046213 -1.2286639525930967 Q 2.7761959011420814 -1.3530863738293442 2.784103452145956 -1.3855111774543643 Q 2.803285005030857 -1.3918249650595778 2.843497264625121 -1.3844129945507653 Q 2.8837095242193853 -1.377001024041953 2.9130079896093024 -1.3635503434626732 Q 2.94230645499922 -1.3500996628833934 2.9401014253960596 -1.3452966357702922 Q 2.931281306983417 -1.3260845273178874 2.912649909168008 -1.3032352223515657 Q 2.894018511352599 -1.280385917385244 2.893577505431967 -1.2794253119626238 Q 2.8670080010451793 -1.239285109389138 2.8248919356248114 -1.1475472915289047 Q 2.7827758702044436 -1.0558094736686716 2.764733924249205 -1.0152435429583055 Q 2.7466919782939656 -0.9746776122479393 2.730193553060939 -0.9374738005167439 Q 2.7136951278279122 -0.9002699887855485 2.698118011226828 -0.8638062795166573 Q 2.6825408946257436 -0.8273425702477661 2.6688697110861477 -0.7975638021465388 Q 2.641684531169668 -0.7332818324123385 2.630218377233233 -0.7083060914242123 L 2.6250048997670032 -0.6944166095868967 Q 2.6236818820051067 -0.691534793319036 2.608988981907883 -0.6924648431741525 Q 2.5644692756955796 -0.6942943873168814 2.501069317802644 -0.7234007780786016 L 2.4672909408482235 -0.7435604188324711 Q 2.4787003929748437 -0.8697490684138434 2.4805867937818102 -1.0689306569931984 Q 2.4824731945887772 -1.2681122455725535 2.479781325713729 -1.285049472063616 Q 2.47708945683868 -1.3019866985546784 2.47516824599344 -1.3028687103959427 L 2.469199388281154 -1.2974674901994971 Q 2.453008800812974 -1.272334562048659 2.412215753154502 -1.1834785604562867 Q 2.371422705496031 -1.0946225588639145 2.32767578454892 -0.9879320411554634 Q 2.28392886360181 -0.8812415234470126 2.2773443303598317 -0.851698536089853 Q 2.2408238418539144 -0.8405511658040346 2.1726208568478773 -0.8718625861689154 M 2.7406703611274 -0.5781251687989372 Q 2.724837683417239 -0.5921332349226454 2.7163739610862234 -0.60808949113466 L 2.7373860602717857 -0.6318385076999011 Q 2.8445477661181533 -0.7529584921826303 3.056281467073188 -0.9763199198036141 L 3.127387123315205 -1.0503067934731518 Q 3.1290027390087523 -1.0728698125071987 3.1446720361156695 -1.1105194906555595 Q 3.1603413332225863 -1.1481691688039204 3.166294761325162 -1.1548980568307385 Q 3.172248189427738 -1.1616269448575571 3.175232263811125 -1.1618094060162023 Q 3.1782163381945123 -1.1619918671748475 3.219061993213301 -1.1307930254241332 Q 3.2599076482320894 -1.0995941836734189 3.300676793335753 -1.0635234134048703 Q 3.3414459384394166 -1.0274526431363218 3.3426937252215376 -1.0192920538716692 Q 3.2054532137070377 -0.5818336500156701 3.2026207058568326 -0.5730491673599569 Q 3.1997881980066274 -0.5642646847042437 3.2013714657776435 -0.5628638780918729 L 3.2094408244629733 -0.5656037020656874 L 3.229052117036165 -0.5877694508599124 Q 3.2885863980619248 -0.6550583311280953 3.3731836315771777 -0.7594480527716354 Q 3.45778086509243 -0.8638377744151755 3.47474356427113 -0.892580844703037 Q 3.494931681648653 -0.8930664389280457 3.531271783763965 -0.8743218368584191 Q 3.567611885879278 -0.8555772347887927 3.591756719387273 -0.8342149339501377 Q 3.6159015528952683 -0.8128526331114827 3.6123995363643413 -0.8088944636839424 Q 3.598391470240633 -0.7930617859737819 3.5739391437750707 -0.7765904942083627 Q 3.5494868173095084 -0.7601192024429437 3.548786414003323 -0.7593275685574357 Q 3.5117268280264233 -0.728606866852872 3.4448383122857167 -0.6530058307868547 Q 3.37794979654501 -0.5774047947208375 3.3489286746279765 -0.5438059698764074 Q 3.3199075527109434 -0.5102071450319772 3.2933378423655593 -0.4793790387868252 Q 3.266768132020175 -0.4485509325416732 3.24129464192373 -0.4181642585289365 Q 3.2158211518272855 -0.3877775845161998 3.1941086493355377 -0.36323693406545077 Q 3.149465298898317 -0.3095882910095497 3.131254812937496 -0.28900580998634084 L 3.1222408005364084 -0.27722253228304294 Q 3.120139590617852 -0.2748476306265188 3.1063463335753205 -0.279994704179389 Q 3.0642661591415408 -0.2946442909524914 3.0120183226980104 -0.3408709091607285 L 2.985529482158955 -0.36995236703162077 Q 3.0330097003375847 -0.48742312834144497 3.092523259817357 -0.6775152112251034 Q 3.1520368192971286 -0.8676072941087618 3.1543675589610594 -0.884597981318789 Q 3.15669829862499 -0.9015886685288161 3.155115030853974 -0.9029894751411869 L 3.147837306054152 -0.8995492478611868 Q 3.1250594779389282 -0.8801851122917036 3.060272172116778 -0.8069589778822104 Q 2.9954848662946274 -0.7337328434727173 2.922703258405204 -0.6442929350745072 Q 2.8499216505157805 -0.5548530266762972 2.835060161255637 -0.5284848580449598 Q 2.7968763669984704 -0.528396534059773 2.7406703611274 -0.5781251687989372 M 3.5628024676631105 -0.37947515938149645 L 3.6587454319713517 -0.441343222101672 Q 3.696713610244005 -0.46632743390945164 3.6990834774410994 -0.4704175084158802 Q 3.7024049572344393 -0.48652160820389795 3.7293221614394465 -0.5263769574061813 Q 3.7562393656444537 -0.5662323066084647 3.766835136325194 -0.5732046447873799 Q 3.782939236113212 -0.56988316499404 3.980488817849144 -0.2696696623730583 Q 4.029295185101551 -0.19549926760787456 4.025763261541304 -0.1931751548815695 Q 4.007220662850008 -0.1809735630684678 3.979626372873491 -0.17483617698464726 Q 3.9520320828969733 -0.16869879090082673 3.9326865736394967 -0.16925466752283064 Q 3.9133410643820206 -0.16981054414483449 3.91205090890002 -0.17465550042247663 Q 3.9107607534180193 -0.17950045670011872 3.889553224790485 -0.21172925918737118 Q 3.868345696162951 -0.24395806167462364 3.826605450355216 -0.29873719271154164 Q 3.7848652045474807 -0.35351632374845965 3.776081150117653 -0.35532803999937224 Q 3.767297095687825 -0.35713975625028493 3.675467083121407 -0.2967128253663528 L 3.638962913920391 -0.2714266608500876 Q 3.663087022073504 -0.23668845342919548 3.708407220236453 -0.167815944004382 Q 3.753727418399402 -0.09894343457956856 3.751078475729217 -0.09720035003483973 Q 3.7192911636869956 -0.07628333549809396 3.664729366386326 -0.07074758050706656 Q 3.6453724185111525 -0.06939795761240161 3.6450933430380617 -0.07174494757410133 Q 3.6299866103170784 -0.09470245071570577 3.5894084208724957 -0.1477156199725004 Q 3.548830231427913 -0.20072878922929496 3.53772206427178 -0.20607242904045445 Q 3.536258055200142 -0.20637438174893988 3.46297064132502 -0.15814904267810936 Q 3.389683227449898 -0.10992370360727888 3.3881734639074708 -0.10260365824908896 Q 3.383342220571704 -0.07917951310288124 3.473982616897602 0.05856550574674568 Q 3.510587392336907 0.11419330182063347 3.526460445446801 0.1315852827664742 Q 3.5423334985566948 0.1489772637123149 3.5414505176666333 0.14955829189389114 Q 3.5202589763051524 0.16350296825172167 3.4818241560278955 0.16854920400275125 Q 3.4433893357506387 0.17359543975378078 3.4179201533512167 0.1675792628194666 Q 3.4032800626348365 0.1645597357346122 3.304795785857659 0.014894474869152158 Q 3.206311509080481 -0.13477078599630787 3.209889187111517 -0.1447168967892883 Q 3.210817922472368 -0.15291992303753993 3.2916106739130147 -0.20608400165176874 Q 3.372403425353661 -0.25924808026599755 3.463629532503108 -0.31674699300665377 Q 3.4672987194757225 -0.3419370999329849 3.487733104741812 -0.3762612427925964 Q 3.508167490007902 -0.4105853856522078 3.529359031369383 -0.4245300620100383 Q 3.530242012259445 -0.4251110901916146 3.5628024676631105 -0.37947515938149645 M 3.5358930782549653 0.5403928313110707 Q 3.4865509927126124 0.39417163490531326 3.5453312946469073 0.2906694094533305 Q 3.6041115965812027 0.18716718400134766 3.7373130974165845 0.14221857182920383 Q 3.8504842973744653 0.1040291494573824 3.9645292311311513 0.1213228311195714 Q 4.031416413842496 0.13110307646102912 4.089351778289833 0.16063748032083824 Q 4.147287142737169 0.19017188418064737 4.200676525716879 0.2558226467508248 Q 4.254065908696591 0.3214734093210023 4.286172060248122 0.4166173384891322 Q 4.296986763928637 0.4486658198931338 4.29942666091579 0.47573145293010677 Q 4.301866557902943 0.5027970859670797 4.299863527815193 0.503473004947112 Q 4.25179080570919 0.5196950604678857 4.18800089382577 0.5339697213186891 Q 4.124210981942349 0.5482443821694927 4.122871507408458 0.5475808266156338 Q 4.116174134739002 0.5442630488463391 4.092821947870789 0.511425304135077 Q 4.0694697610025745 0.4785875594238149 4.0633864901822845 0.46056028863406406 L 4.069395580445534 0.45853253169396735 Q 4.114463757419912 0.44332435464324205 4.128097554839453 0.42422138825257616 Q 4.1417313522589945 0.4051184218619104 4.130916648578479 0.37306994045790876 Q 4.106921524787334 0.30196237234278017 4.0116931251276595 0.2660479366726029 Q 3.916464725467985 0.23013350100242566 3.786267769764229 0.27406823470452113 Q 3.7171632317368504 0.29738743951563334 3.6735705269842702 0.35002672295827164 Q 3.650609861532184 0.37785481895848994 3.6442421931479894 0.4184903587924693 Q 3.6378745247637942 0.45912589862644876 3.653758620794552 0.5061971056885761 Q 3.685526812856067 0.600339519812831 3.802737016284631 0.6600718830863082 Q 3.8040888542446956 0.6640779432618084 3.795794409821459 0.6808213749354479 Q 3.787499965398222 0.6975648066090876 3.77052366335704 0.7166801364259267 Q 3.7389120488524408 0.7552363921234476 3.7298984134575655 0.7582780275335927 Q 3.7208847780626897 0.7613196629437378 3.6858709152972513 0.7385527040890061 Q 3.650857052531813 0.7157857452342745 3.6045277285639212 0.6611392847205493 Q 3.5581984045960295 0.606492824206824 3.5358930782549653 0.5403928313110707 M 3.741466924521163 0.9481245880097513 L 4.180535953403136 0.9232292868137182 Q 4.234297548355523 0.9192725764154865 4.23673896426504 0.9164432477218287 Q 4.239180380174558 0.9136139190281709 4.238094224378965 0.8988558341392804 Q 4.235689165117295 0.8661772175995941 4.219018653921527 0.7836752784377068 L 4.212707329204628 0.755523587807873 L 4.239882453470655 0.7503439945684379 Q 4.290481601661137 0.7466200318406905 4.329672283713248 0.7606934425250405 L 4.342787566101837 0.7660873453669138 Q 4.349893154455061 0.8482333786196188 4.363332855366119 0.9516403432396158 Q 4.376772556277177 1.0550473078596128 4.382940369545009 1.1388521470500985 Q 4.389108182812841 1.222656986240584 4.3848915871303005 1.2229673164678965 Q 4.354321268431884 1.2252172106159105 4.311240324362025 1.2230885595642722 Q 4.268159380292166 1.2209599085126341 4.260237259949924 1.2141239439659852 Q 4.263723605746053 1.189490606007239 4.258913487222713 1.1241333729278664 Q 4.254103368699372 1.058776139848494 4.2507081742669826 1.0558464407570731 Q 4.242786053924741 1.0490104762104244 3.975032228083441 1.0687164456447549 Q 3.707278402242141 1.0884224150790855 3.651627688312056 1.1243139233236807 L 3.650573539391421 1.1243915058805087 Q 3.6410861991057057 1.1250897488919613 3.6296272880243303 1.0845986014418194 Q 3.6181683769429553 1.0441074539916775 3.6163839781359095 1.0198620288170717 Q 3.6139013363174115 0.9861292633567504 3.621837025466565 0.9643480419325969 Q 3.6297271389338492 0.956348339033527 3.741466924521163 0.9481245880097513" fill="url(#gradient-00198c8a-127a-4503-8409-5260729a03f7)" fill-rule="nonzero"></path></g><g transform="matrix(1,0,0,1,0,0)" clip-path="url(#SvgjsClipPath12818)"><g clip-path="url(#SvgjsClipPath128147c966085-c1ae-43b1-ad56-bd86dd327208)"><path d=" M 1.857216506299892 2.2446097403027268 L 1.857216506299892 2.2446097403027268 C 1.8132483204101415 2.244796506806441 1.771101985112537 2.22706071864953 1.7404967998041498 2.19549239775022 L 1.5514214381504141 2.002984103552492 C 1.488248796445715 1.9384129164599269 1.489074630078622 1.834947759879981 1.5532699402894874 1.771393192700082 C 1.6187565613673158 1.7103201295274681 1.7206413849474669 1.7113656978424303 1.7848608511418986 1.773769838307461 L 1.973936212795633 1.9662781325051888 C 2.0371088545003326 2.0308493195977553 2.036283020867426 2.1343144761777006 1.9720877106565604 2.1978690433576 C 1.9414556201459943 2.2279823130435603 1.9001711884285193 2.2447808059492913 1.857216506299892 2.2446097403027268 Z M 1.6678770729120034 1.8025536573301666 C 1.645566832120704 1.802508878666109 1.624132734433619 1.8112342635652756 1.6081968609933663 1.8268482568722664 C 1.5747592055408286 1.860436013269729 1.5747592055408286 1.914733498185305 1.6081968609933663 1.9483212545827677 L 1.7972722226471025 2.141093620514649 C 1.831311394774871 2.173419518896555 1.8847060482298341 2.173419518896555 1.9187452203576032 2.141093620514649 C 1.9520388950239607 2.107446542110108 1.9520388950239607 2.053267701208689 1.9187452203576028 2.0196206228041484 L 1.729669858703867 1.8271123286064204 C 1.7131447321099231 1.810888986752811 1.6907647776230512 1.802032238806943 1.6676130011778505 1.802553657330166 Z" fill="#0c4770" transform="matrix(1,0,0,1,0,0)" fill-rule="nonzero"></path></g><g clip-path="url(#SvgjsClipPath128147c966085-c1ae-43b1-ad56-bd86dd327208)"><path d=" M 2.066625391483429 2.1020110038599658 C 2.022714203264537 2.1021758236552532 1.9806077235395463 2.084552070829183 1.9499056849876872 2.0531577330416124 L 1.7605662515997982 1.8603853671097303 C 1.6974240701560617 1.795904228756637 1.698250180860166 1.692522374928749 1.7624147537388724 1.629058527991473 C 1.8278672165301206 1.5677443422596011 1.9299453906009632 1.5686744395176497 1.994269736325435 1.6311711018646993 L 2.183345097979171 1.8236793960624271 C 2.2139090575746256 1.8545533329967363 2.230755872462659 1.8964324208539958 2.2300857949242983 1.9398709590898624 C 2.2299250844907768 1.9833301335695221 2.2123244871485834 2.0249055986427016 2.181232524105944 2.055270306914838 C 2.1507299957862362 2.085416985423843 2.1095110487375357 2.1022274776533822 2.0666253914834294 2.1020110038599658 Z M 1.8775500298296937 1.6599549208874054 C 1.8549241340968405 1.6600131780624376 1.8332192263411269 1.668922616180503 1.8170776027085969 1.6847776638978111 C 1.7837007482000866 1.7181844188623725 1.7837007482000866 1.7723157631754445 1.8170776027085969 1.8057225181400054 L 2.0061529643623324 1.9984948840718872 C 2.039750663652521 2.031159582649254 2.093060598927215 2.0317403008984334 2.1273618903386793 1.9998152427426534 C 2.1438469775143862 1.9839653664007106 2.1533481744082748 1.9622076255137073 2.1537690637540057 1.9393428156215564 C 2.153907385809921 1.9166518772878463 2.1450813120899705 1.894823953034206 2.1292103924777517 1.8786063167663067 L 1.9398709590898633 1.685569879100272 C 1.9235108929809417 1.6688140396705275 1.9009646328929766 1.6595471446343717 1.8775500298296937 1.6599549208874043 Z" fill="#0c4770" transform="matrix(1,0,0,1,0,0)" fill-rule="nonzero"></path></g><g clip-path="url(#SvgjsClipPath128147c966085-c1ae-43b1-ad56-bd86dd327208)"><path d=" M 2.2760342766669663 1.9594122674172039 L 2.2760342766669663 1.9594122674172039 C 2.232090441020434 1.9594774921751366 2.1899896356331454 1.9417608636637436 2.159314570171224 1.910294924864697 L 1.970239208517489 1.7177866306669691 C 1.9395981035443592 1.687030808421541 1.922570984705853 1.645271561661184 1.9229703681040549 1.6018591393736874 C 1.9234055707964959 1.5584041074017823 1.9410715074918201 1.5168986539832012 1.9720877106565635 1.4864597915487094 C 2.0373805865506553 1.4251491622230914 2.139395130828934 1.426197256856088 2.203414549774819 1.488836437156091 L 2.392753983162708 1.681080659619666 C 2.423455164835643 1.7119921595525622 2.4404002234637856 1.753974018288579 2.439758751841989 1.7975362943812545 C 2.439457930671603 1.8409421822566145 2.421765392672445 1.8824150132653912 2.39064140928948 1.9126715704720787 C 2.360106506065561 1.94276916161481 2.3189087458448694 1.9595710131333866 2.2760342766669663 1.9594122674172039 Z M 2.0869589150132306 1.5173561844446435 C 2.064401980049236 1.5173702288193918 2.0427631973754754 1.5262914813252395 2.026750559626288 1.5421789274550504 C 2.0101056351512807 1.5578073051492023 2.0005665649941085 1.5795563851075538 2.0003433862109605 1.6023872828419938 C 1.9999689145146884 1.6251227764645988 2.008830388342195 1.6470382493713354 2.0249020574872136 1.6631237816972446 L 2.21397741914095 1.8556320758949725 C 2.2299490625525853 1.8724125794106488 2.252075906663822 1.8819500122172168 2.2752420614645064 1.8820392493102984 L 2.2752420614645064 1.8820392493102984 C 2.2977895016215775 1.8822409750874225 2.3194766314136457 1.8733949089880262 2.3354504168514496 1.857480578034045 C 2.351979131930239 1.8418798103540017 2.3615024106902034 1.820261967568882 2.3618575902667764 1.7975362943812545 C 2.3622017841556424 1.7748064425549455 2.353344898371272 1.7529023164215547 2.3372989189905224 1.7367997955260037 L 2.1476954138684805 1.5432352143916626 C 2.1317791539714257 1.5267553609711417 2.1098698036075594 1.517420072555234 2.08695891501323 1.5173561844446435 Z" fill="#0c4770" transform="matrix(1,0,0,1,0,0)" fill-rule="nonzero"></path></g><g clip-path="url(#SvgjsClipPath128147c966085-c1ae-43b1-ad56-bd86dd327208)"><path d=" M 1.6472794776480493 2.3872084767454886 C 1.6033905901280547 2.3873845840796606 1.5613301094289278 2.369644789499077 1.5308238428864605 2.338091134192982 L 1.3414844094985725 2.145582839995254 C 1.2783839366692622 2.0809393903670603 1.2793277531244396 1.977473511468171 1.343596983371797 1.9139919291428433 C 1.409083604449627 1.85291886597023 1.5109684280297777 1.853964434285192 1.5751878942242092 1.9163685747502228 L 1.7642632558779443 2.1088768689479505 C 1.7947325635993323 2.139725606510074 1.8116491292847057 2.181446799408269 1.8112680245572246 2.2248043602412326 C 1.811028125282457 2.2683530165677612 1.793222999040188 2.309961787518945 1.7618866102705644 2.340203708066209 C 1.731443517493083 2.370471808213024 1.6902085940665066 2.3873838274985784 1.6472794776480497 2.3872084767454886 Z M 1.4584681877284666 1.9451523937729283 C 1.4359012118340033 1.9452505569201748 1.4142412045337758 1.9540469790988697 1.3979957606073696 1.9697110650491816 C 1.3645885704798209 2.0032083586567104 1.3645885704798209 2.0574226974179997 1.3979957606073696 2.0909199910255287 L 1.5870711222611058 2.28369235695741 C 1.6209131873737201 2.3162549301629576 1.6744379831248397 2.3162549301629576 1.708280048237454 2.28369235695741 C 1.7248141679257039 2.2678766790648384 1.7343247438931226 2.2460974600994508 1.7346872216527796 2.223219929836313 C 1.7349600031385146 2.200581246617509 1.7261085425167302 2.178785714548813 1.7101285503765262 2.162747502715216 L 1.52105318872279 1.9702392085174885 C 1.5044874939443362 1.9536891279906796 1.481878673981153 1.9446265208324416 1.4584681877284666 1.9451523937729278 Z" fill="#0c4770" transform="matrix(1,0,0,1,0,0)" fill-rule="nonzero"></path></g><g clip-path="url(#SvgjsClipPath128147c966085-c1ae-43b1-ad56-bd86dd327208)"><path d=" M 1.338843692157039 2.325151619219472 C 1.295998490811891 2.3249021957545732 1.254918164279877 2.3080535825686317 1.2242365595345228 2.2781468505401907 C 1.1969241452352002 2.2509836490557356 1.1800091886964488 2.2150977744099865 1.1764395756527835 2.1767433046253384 C 1.119032505078398 2.1929447193251246 1.0573460889990258 2.1771199361152203 1.014827674350985 2.135284042363276 C 0.9872873280555249 2.1081455728361242 0.970258580204862 2.072123221613567 0.9667666187350931 2.0336164247142703 C 0.9515620934897032 2.0379172165444226 0.9358267145265401 2.0400508272512923 0.9200259217899652 2.039954146333949 C 0.8769731852121256 2.0401005276523794 0.8356357013329117 2.0230903906078286 0.8051547174332967 1.9926853059205143 C 0.777613575950346 1.965654878256856 0.760578938531805 1.9297136652419138 0.7570936618174038 1.8912817600056615 C 0.6998635202719374 1.9076300503298493 0.6382622533310377 1.8920028876852675 0.5957458322497599 1.8503506412119055 C 0.5314367431546219 1.7869478676987265 0.5306096749082383 1.6834461842941384 0.5938973301106868 1.6190238020936487 L 1.0940491945969655 1.196509027448429 C 1.1105470302245593 1.182709721515803 1.1350941326674262 1.1848339899964357 1.148976115300843 1.201262318663188 C 1.1557030665249666 1.2091247681509683 1.159012540822164 1.2193475521732475 1.1581696452856107 1.2296606269734265 C 1.1573267497490574 1.2399737017736048 1.1524012523888845 1.2495234352277336 1.1444868958202374 1.256189239367066 L 0.6467116769413387 1.675271081468293 C 0.6158982028367236 1.7093717776172699 0.6175305824170998 1.7617245227307399 0.6504086812194839 1.7938392901031073 C 0.6839964376169461 1.827276945555644 0.7382939225325225 1.827276945555644 0.7718816789299846 1.7938392901031073 C 0.7884718001317439 1.7788323039503735 0.8129366202936222 1.7764716634084383 0.8320900343169291 1.7880297119517354 C 0.8455931731164522 1.8020862900355559 0.8496214289422167 1.822744012218965 0.8423888319489065 1.840844058782388 C 0.8272451277708444 1.8736002482804024 0.8342102792608663 1.9123307118688513 0.8598175664030219 1.9377583852166353 C 0.876370659160479 1.953275217984316 0.8981311813390215 1.9620359476925602 0.9208181369924257 1.9623170564928887 C 0.9436293834555264 1.9620028204562057 0.9653444367718006 1.9524786742648574 0.9810264923793701 1.935909883077562 C 0.9976301522788976 1.9210600918603076 1.022176514822101 1.919322296282028 1.0407067042980067 1.9316847353311106 C 1.0535227921961283 1.946089810861737 1.0574704490158935 1.9663342048092496 1.051005501929984 1.9844990821617625 C 1.037189552889965 2.0169052304788577 1.0445120271789003 2.054459062903539 1.0694905233207133 2.0793008347227837 C 1.0855895849445718 2.095426591480782 1.1074406267570525 2.1044881947631953 1.1302270221759636 2.1044881947631953 C 1.1530134175948736 2.1044881947631953 1.174864459407354 2.095426591480782 1.190963521031214 2.0793008347227837 C 1.2072165552987475 2.064600267245293 1.2312420304389977 2.0624455161116386 1.2498515177473901 2.07401940003972 C 1.2631441112402362 2.0882161340999836 1.266865935513969 2.108892935620725 1.259358100176907 2.126833746870372 C 1.2453767971058423 2.159393226961648 1.2527057158666788 2.197189507999676 1.2778431215676362 2.2221636428997 C 1.2981747177957372 2.242269773199974 1.3272064617997823 2.2508901203957143 1.3552161396745417 2.245137883771034 C 1.376274858235481 2.240915508562477 1.3967947734979407 2.2544775215232975 1.401164621417209 2.275506133198659 C 1.4032598567776484 2.28566770551357 1.4012000330946828 2.2962451555612744 1.3954448330880858 2.30487795557117 C 1.3896896330814887 2.313510755581066 1.3807180729155173 2.3194803813067666 1.3705323002554304 2.3214546149413264 C 1.3601086155781204 2.323677209156637 1.3494990726530618 2.32491498916456 1.338843692157039 2.3251516192194717 Z" fill="#80caff" transform="matrix(1,0,0,1,0,0)" fill-rule="nonzero"></path></g><g clip-path="url(#SvgjsClipPath128147c966085-c1ae-43b1-ad56-bd86dd327208)"><path d=" M 1.6111016500690518 1.4629574072090714 C 1.5270990619540834 1.4607732517978829 1.446346742602062 1.430037074881888 1.382151456558174 1.3758137349384956 C 1.3274886075884478 1.3322418988032076 1.2810119823774746 1.2928952104143714 1.246946728671703 1.2638473196575124 L 1.232686855027427 1.2519640916206154 C 1.2202754835222243 1.241401222254485 1.2149940488391582 1.2363838593055727 1.2112970445610132 1.2326868550274268 C 1.193327073427527 1.219312832146228 1.1886184920996203 1.1943918041424306 1.20047010346073 1.1753832887161693 C 1.2057884556454068 1.1666208755936522 1.2145741604741898 1.1605257559675919 1.2246441191074577 1.158612463827271 C 1.2347140777407248 1.1566991716869504 1.245123001920212 1.1591473118014388 1.2532844502913807 1.1653485628183444 C 1.2576394222178575 1.1686052202982535 1.2617847663942008 1.1721331727887587 1.2656958217965837 1.1759114321844757 C 1.268864682606424 1.1790802929943152 1.2738820455553355 1.1835695124749201 1.2844449149214674 1.1925479514361308 L 1.29844071683159 1.2044311794730282 C 1.3322418988032079 1.2329509267615804 1.3776622370775695 1.2717694716821097 1.4323250860472945 1.3150772360832452 C 1.50787045867542 1.3905794755879035 1.625451267815548 1.4041422852003456 1.7162022002620518 1.3478221311182494 C 1.7425928973741214 1.3259891187795847 1.7589076029385333 1.2943137839995573 1.761358466802259 1.260150315379366 C 1.7612770713100334 1.2386156130987753 1.7526310405945897 1.2179981552388723 1.7373279389943115 1.2028467490681096 L 1.6052920719176804 1.0745078862696233 L 1.3554802114086941 0.8307696756461617 C 1.316382488369994 0.7943000211971292 1.2647609273241534 0.7742564846738353 1.2112970445610132 0.7747864680056704 C 1.1970765010572895 0.7747262617066973 1.182897274754185 0.7763214246657959 1.1690455670964908 0.7795397592204294 C 1.148976115300843 0.7850852656376477 1.1001228444824898 0.8001373544843831 1.0882396164455928 0.8038343587625283 C 1.0410248450462727 0.8218454880551813 0.9911326731333188 0.8318417729465074 0.940623517053919 0.8334103929876941 C 0.8453881437218473 0.8327230762613125 0.7556213304367108 0.7888111719270254 0.6966212346963059 0.7140499691504201 C 0.6824658797574005 0.6978145610684743 0.6839959913766978 0.6732150742659488 0.7000541672402976 0.658858976712388 C 0.7164078136788837 0.6449149595883215 0.7408973709240413 0.6465554083990015 0.7552451596783296 0.6625559809905323 C 0.7990679557058765 0.7206178999128194 0.8673553785730171 0.7550542717301058 0.940095373585612 0.7557733031466343 C 0.9820280691684325 0.7537754007763132 1.0233411639265737 0.744852486141725 1.062360586498573 0.7293661297313078 C 1.0755641732062364 0.7248769102507022 1.1273222331002755 0.70929667793566 1.148976115300843 0.7029589563159813 C 1.1692084125604647 0.6980261007129375 1.189944521665814 0.6954562410374883 1.2107689010927072 0.6953008760255354 C 1.2846789974938495 0.695233056155908 1.3557829857060684 0.7235990089001438 1.4093508451759609 0.7745223962715159 L 1.6591627056849463 1.0182606068949756 C 1.7241243522866483 1.0813737513576058 1.778787201256374 1.1347162416565648 1.7911985727615773 1.1473916848959216 C 1.8213094248238304 1.1771836842573151 1.8382374884412458 1.2177920166429117 1.838203341440859 1.260150315379364 C 1.8357149677598257 1.3152064101622298 1.8109274215702036 1.366878910295982 1.7695446905610097 1.4032771952904317 C 1.726560678636446 1.4431147807167528 1.6696863061117349 1.464537461034395 1.6111016500690518 1.4629574072090714 Z" fill="#0c4770" transform="matrix(1,0,0,1,0,0)" fill-rule="nonzero"></path></g><g clip-path="url(#SvgjsClipPath128147c966085-c1ae-43b1-ad56-bd86dd327208)"><path d=" M 1.547196290403962 0.8418606884805994 C 1.5367801599008941 0.8418104722188231 1.5268089487662289 0.8376320599338198 1.5194687583178688 0.8302415321778558 C 1.5042594191017693 0.814988036778812 1.5042594191017693 0.7903040351388676 1.5194687583178699 0.7750505397398239 C 1.5731473740197293 0.7241338767658774 1.6443289822679525 0.6957746702924823 1.718314774135276 0.6958290194938453 C 1.7388614461277923 0.695995117491753 1.759324006336067 0.6984754278200294 1.7793153447246801 0.7032230280501358 C 1.8014973703935542 0.709296677935661 1.835562624099325 0.7193314038334849 1.8730608103490882 0.7296302014654623 C 1.8947146925496556 0.7357038513509875 1.8994679837644142 0.7372882817559072 1.901052414169334 0.7380804969583665 C 1.9026368445742534 0.7388727121608268 1.904485346713326 0.7380804969583665 1.9200655790283683 0.7433619316414325 C 1.9422809885044514 0.7507658194648267 1.9655727861444294 0.7544246842281946 1.98898830164237 0.7541888727417168 C 2.0618434482972785 0.7536916531864802 2.130258422858624 0.7190932231940274 2.173838515549653 0.6607074788514612 C 2.1882522093870667 0.6448388925316203 2.212758414374377 0.64354289130633 2.2287654362535316 0.6578026897757753 C 2.236452269611203 0.6646905073978914 2.2410795867922406 0.6743559972573862 2.2416246635996906 0.6846629041618901 C 2.2421697404071397 0.6949698110663942 2.238587694457055 0.7050694499376311 2.2316702253292173 0.7127296104796538 C 2.1726105890821925 0.7870957809519854 2.083156187650109 0.8308527603943607 1.9881960864399097 0.8318259625827744 C 1.9579339940536065 0.8321575308223133 1.9278098485630728 0.8277012962822935 1.8989398402961073 0.8186223758751112 C 1.889942984399007 0.8169140578189124 1.881108483373956 0.8144403975318976 1.8725326668807813 0.8112283673188208 L 1.8516709998826741 0.8064750761040618 C 1.8144368853670645 0.7953840632696241 1.7814279185979058 0.785877480840107 1.760302179865645 0.7800679026887353 C 1.7466345914233394 0.7768203005079214 1.7326266843866278 0.7752244629974092 1.7185788458694298 0.7753146114739763 C 1.6651910604790223 0.7747710546248948 1.6136470309254887 0.7948212092402142 1.5746597507559013 0.8312978191144687 C 1.567201128766674 0.8382144890856658 1.5573674690776975 0.8419966658891176 1.547196290403962 0.8418606884805994 Z" fill="#80caff" transform="matrix(1,0,0,1,0,0)" fill-rule="nonzero"></path></g><g clip-path="url(#SvgjsClipPath128147c966085-c1ae-43b1-ad56-bd86dd327208)"><path d=" M 2.4619407775108626 1.6575782752800257 C 2.4507558726224894 1.657547089781431 2.4401437753213733 1.6526269355781866 2.4328928867540034 1.6441106168382096 C 2.426039897845539 1.6363827276083378 2.422549286341808 1.6262423376378943 2.4231935780348444 1.6159336705493232 C 2.4238378697278793 1.6056250034607522 2.428563933589769 1.5959981557006606 2.4363258192979966 1.589183696134331 L 2.5121144069999826 1.5226376191277093 C 2.555837147886745 1.48438223069762 2.5857241768711847 1.432776056426351 2.5971455053973327 1.3758137349384956 C 2.6179117625671906 1.2879423265814203 2.6668841998858497 1.2092896242211504 2.7365753810302555 1.1518809043765292 C 2.752863466496101 1.1378874401816126 2.777390602366748 1.1396562240184378 2.791502301734133 1.1558419803888285 C 2.798260392673545 1.1636708944647545 2.801614936081875 1.1738729627953972 2.800821715955341 1.1841848244403397 C 2.8000284958288066 1.1944966860852826 2.7951531013041233 1.2040656822672322 2.7872771539876813 1.2107689010927065 C 2.7289805469421733 1.258649843957244 2.6883618752614478 1.3246435668252416 2.671877806162706 1.398259832341523 C 2.6562189100755913 1.4693043857445924 2.6181761746616563 1.5334494359680897 2.563344323425716 1.5812615441097349 L 2.487819807457883 1.6480716928505093 C 2.4806101512775025 1.6542372276334247 2.471427184572775 1.6576105623412836 2.4619407775108626 1.6575782752800257 Z" fill="#80caff" transform="matrix(1,0,0,1,0,0)" fill-rule="nonzero"></path></g><g clip-path="url(#SvgjsClipPath128147c966085-c1ae-43b1-ad56-bd86dd327208)"><path d=" M 2.810779538327322 1.2638473196575113 C 2.8010338790901312 1.26391193453972 2.7916157052937343 1.2603330284970884 2.784372364911995 1.2538125937596873 L 1.9499056849876872 0.5165243120037802 C 1.9421177196931425 0.5097120684337142 1.937394762119792 0.5000553663904772 1.9367988145093755 0.4897256078099217 C 1.9362028668989586 0.4793958492293652 1.939783950431096 0.46926006789158076 1.9467368241778478 0.4615973912999017 L 2.23510315787321 0.13520472788646978 C 2.249366443188844 0.11917845998529147 2.2738823029804958 0.11764621874831298 2.2900300785770886 0.13177179534247802 L 2.91508787331786 0.6834176479886415 C 2.9228758386124047 0.6902298915587074 2.9275987961857552 0.6998865936019445 2.9281947437961717 0.7102163521825 C 2.9287906914065887 0.7205461107630565 2.925209607874451 0.7306818921008409 2.9182567341276995 0.73834456869252 C 2.911442274561371 0.7461064544007472 2.901815426801279 0.7508325182626373 2.891506759712708 0.7514768099556736 C 2.8811980926241363 0.7521211016487088 2.8710577026536925 0.748630490144977 2.8633298134238214 0.7417775012365128 L 2.2675839811740612 0.21601067853736794 L 2.0299194204361255 0.4840434887029285 L 2.8057621753784097 1.1706299975014103 L 2.858576522209062 1.1101575703803135 C 2.8653169862477332 1.1023198390882367 2.874905254287263 1.0974943838991058 2.885215977016984 1.0967508221637892 C 2.895526699746705 1.0960072604284736 2.9057081320292015 1.0994070160751508 2.9135034429129405 1.1061964943680147 C 2.921281891341405 1.1130573209696937 2.926014193324596 1.1227286844421884 2.9266580877094515 1.1330805249371798 C 2.9273019820943076 1.1434323654321716 2.9238046563295854 1.1536156196258283 2.916936375456932 1.1613874868060463 L 2.837714855210954 1.251435948152309 C 2.8309327033510825 1.2590225206396222 2.8214589584958003 1.26366465561871 2.811307681795628 1.2643754631258188 Z" fill="#80caff" transform="matrix(1,0,0,1,0,0)" fill-rule="nonzero"></path></g><g clip-path="url(#SvgjsClipPath128147c966085-c1ae-43b1-ad56-bd86dd327208)"><path d=" M 2.284220500425717 0.5912566127691532 C 2.254224315175201 0.5913533216911951 2.2252530873957608 0.580348017632122 2.2028864063065123 0.5603602198732222 C 2.17834563237013 0.5388816044528159 2.1634955490935535 0.5084198951675308 2.161691215778603 0.4758572649441767 C 2.159467816377387 0.44327405334917247 2.17051619980519 0.4111765945977105 2.1923235369403815 0.3868650905345267 C 2.238195120933325 0.3378749074713782 2.314342603215155 0.33323883549075 2.3658186662790746 0.376302221168398 C 2.4164708509520447 0.4212339036263812 2.421309005250766 0.49864437240592974 2.3766456073793587 0.5495332787729368 C 2.353183385266328 0.5759666456833186 2.319564324520444 0.5911432502486039 2.284220500425717 0.5912566127691532 Z M 2.284220500425717 0.4233069898476782 C 2.271405480613673 0.42330758340426117 2.2592016092351783 0.4287849115032714 2.250683390188252 0.4383590786944135 C 2.242588248892111 0.44726701791637846 2.238486000107332 0.4590967585980646 2.2393283056196625 0.47110397372941765 C 2.24021646415625 0.4830794069702283 2.245705272768469 0.4942462934571564 2.254644466200552 0.5022644383595032 C 2.273543937358183 0.5178981448901049 2.301364733975248 0.516043425115635 2.3180216823973345 0.4980392906130511 C 2.3345010407525093 0.47951695130582983 2.332845876942031 0.45114271455477034 2.3143246781191893 0.43466207441626725 C 2.3060375849339994 0.42728756444087607 2.295313523230302 0.4232425236228146 2.284220500425717 0.4233069898476782 Z" fill="#80caff" transform="matrix(1,0,0,1,0,0)" fill-rule="nonzero"></path></g><g clip-path="url(#SvgjsClipPath128147c966085-c1ae-43b1-ad56-bd86dd327208)"><path d=" M 0.11804006516650789 1.2638473196575113 L 0.1156634195591289 1.2638473196575113 C 0.10548196577950651 1.2632499809480688 0.09596721998654699 1.2585877555095197 0.08925624614380136 1.250907804684002 L 0.010034725897822866 1.1608593433377394 C -0.004120629041081476 1.1446239352557936 -0.002590517421784222 1.1200244484532678 0.013467658441815666 1.1056683508997078 C 0.029773100984637865 1.0915794643282197 0.05437795701385346 1.0932276365024252 0.06865865087984871 1.109365355177853 L 0.12147299771049964 1.1701018540331034 L 0.8970516809186305 0.4835153452346216 L 0.6593871201806951 0.21548253506905998 L 0.06364128793093624 0.7412493577682048 C 0.05591339870106445 0.7481023466766701 0.04577300873062187 0.751592958180401 0.03546434164205032 0.7509486664873657 C 0.025155674553478766 0.7503043747943304 0.015528826793387166 0.7455783109324403 0.008714367227057686 0.7378164252242131 C 0.0018613783185924039 0.7300885359943413 -0.0016292331851384208 0.7199481460238977 -0.0009849414921031538 0.7096394789353261 C -0.00034064979906684643 0.6993308118467546 0.004385414062822234 0.689703964086663 0.012147299771049445 0.6828895045203345 L 0.6369410227776693 0.1312436518741701 C 0.6446378057339153 0.12432268625284994 0.6547942324876886 0.1207872733098188 0.6651249316383215 0.12143294200673381 C 0.6754556307889564 0.12207861070364778 0.6850928121431787 0.12685112415342878 0.6918679434815468 0.13467658441816288 L 0.9802342771769087 0.4610692478315948 C 0.9871871509236604 0.4687319244232739 0.990768234455798 0.47886770576105825 0.990172286845381 0.48919746434161476 C 0.9895763392349639 0.4995272229221703 0.9848533816616151 0.5091839249654073 0.9770654163670693 0.5159961685354734 L 0.1428628081769147 1.2532844502913811 C 0.1361044964205893 1.2596399620135443 0.1273057409062002 1.263384113296262 0.11804006516650789 1.2638473196575113 Z" fill="#0c4770" transform="matrix(1,0,0,1,0,0)" fill-rule="nonzero"></path></g><g clip-path="url(#SvgjsClipPath128147c966085-c1ae-43b1-ad56-bd86dd327208)"><path d=" M 0.6445991030681122 0.5912566127691532 C 0.609233297797128 0.5912449296171268 0.5755744961654974 0.5760503848805641 0.5521739961144704 0.5495332787729368 C 0.530497566428499 0.5251450398612656 0.5194686788174309 0.49310421981876706 0.5215416749526918 0.46054110436328893 C 0.5236387083336732 0.42801548730808114 0.5386631827182992 0.3976812637087401 0.5632650089489081 0.37630222116839696 C 0.6148508552656063 0.3331380924876936 0.691195695188019 0.3378951417837716 0.7370242100217549 0.3871291622686812 C 0.7586833769142886 0.41151351573683803 0.7696270778488916 0.4435833176060647 0.7673924594493791 0.4761213366783301 C 0.7653743943791913 0.5086853745230662 0.7504523035586128 0.5390998271509955 0.7259331971873172 0.5606242916073745 C 0.703488408552125 0.5804516199320834 0.6745470990613188 0.5913515936364128 0.6445991030681122 0.5912566127691532 Z M 0.6445991030681122 0.4233069898476782 C 0.6335150106910269 0.42329200598282846 0.6228079921254914 0.4273306182487759 0.6144949253746405 0.4346620744162683 C 0.6055779261512603 0.44255656917431796 0.6001633052485771 0.4536707910271916 0.5994428365279061 0.4655584673122014 C 0.5986916688184621 0.47742707604212375 0.6026805478863289 0.4891087933123083 0.6105338493623428 0.49803929061305213 C 0.6273419204420952 0.5159512949679007 0.6551466632927069 0.5177972529994761 0.674175137293278 0.5022644383595032 C 0.6832284500886487 0.494362241963639 0.6886649346460061 0.48310776516068726 0.6892272261400144 0.47110397372941976 C 0.6900679666602173 0.459223557873379 0.6860676022641471 0.4475082049991737 0.6781362133055767 0.438623150428568 C 0.6696870904125015 0.4289228419834969 0.6574631054147432 0.4233402346616861 0.6445991030681122 0.4233069898476782 Z" fill="#0c4770" transform="matrix(1,0,0,1,0,0)" fill-rule="nonzero"></path></g><g clip-path="url(#SvgjsClipPath128147c966085-c1ae-43b1-ad56-bd86dd327208)"><path d=" M 0.4668788259829677 1.6575782752800257 C 0.4572111821909383 1.6577386142693404 0.4478187427626451 1.6543573360751551 0.4404716525676412 1.6480716928505088 L 0.36441899313150106 1.581261544109733 C 0.3096847027313877 1.5334113618209595 0.27173700583613214 1.46927049853215 0.2561495821286646 1.3982598323415214 C 0.2396334801240286 1.3245923156067305 0.19891183584326555 1.2585823442840296 0.14048616256953678 1.2107689010927059 C 0.13264843127745896 1.2040284370540344 0.12782297608832804 1.194440169014505 0.12707941435301143 1.184129446284784 C 0.1263358526176958 1.173818723555063 0.12973560826437316 1.163637291272567 0.13652508655723603 1.1558419803888274 C 0.15063678592462196 1.1396562240184367 0.17516392179526857 1.1378874401816117 0.19145200726111458 1.1518809043765288 C 0.2611793107593673 1.2092118941927217 0.31008669765515995 1.2879091695013236 0.3306178111598841 1.3758137349384945 C 0.3420391396860328 1.4327760564263499 0.3719261686704718 1.4843822306976184 0.41564890955723544 1.5226376191277073 L 0.49143749725922004 1.58918369613433 C 0.49933854874650285 1.59588411077529 0.5042106680960611 1.6054822967779765 0.5049558225006922 1.6158151045221834 C 0.5057009769053222 1.6261479122663904 0.5022564630275859 1.6363458554729686 0.4953985732715187 1.6441106168382085 C 0.48818585923661256 1.6523802954904139 0.4778474630198452 1.6572623159261095 0.4668788259829677 1.6575782752800257 Z" fill="#0c4770" transform="matrix(1,0,0,1,0,0)" fill-rule="nonzero"></path></g><g clip-path="url(#SvgjsClipPath128147c966085-c1ae-43b1-ad56-bd86dd327208)"><path d=" M 2.363442020671696 0.2870459750245956 C 2.353722615835104 0.28723475257371023 2.34429065069389 0.2837449254714608 2.337034847256369 0.27727532086092516 C 2.3292729615481425 0.27046086129459673 2.3245468976862527 0.26083401353450514 2.3239026059932173 0.2505253464459336 C 2.323258314300181 0.24021667935736307 2.3267489258039125 0.23007628938691946 2.333601914712377 0.22234840015704663 L 2.5184521286196606 0.01293951497351084 C 2.532782393231532 -0.0029485615841419806 2.5571820223746204 -0.004473538405585752 2.573379049323539 0.00950658242951804 C 2.581167014618084 0.01631882599958301 2.5858899721914343 0.025975528042821133 2.586485919801851 0.03630528662337661 C 2.5870818674122678 0.04663504520393209 2.58350078388013 0.056770826541717515 2.5765479101333786 0.06443350313339555 L 2.391697696226095 0.27384238831693236 C 2.384600306646567 0.282081257123471 2.3743152327712838 0.2868873664109878 2.363442020671696 0.2870459750245956 Z" fill="#80caff" transform="matrix(1,0,0,1,0,0)" fill-rule="nonzero"></path></g><g clip-path="url(#SvgjsClipPath128147c966085-c1ae-43b1-ad56-bd86dd327208)"><path d=" M 0.5653775828221337 0.2870459750245956 C 0.5541354519822648 0.2871944820961625 0.5434038929499712 0.28236044649602965 0.5360656203311213 0.2738423883169334 L 0.3512154064238378 0.06443350313339555 C 0.3443775765670939 0.056749667781639514 0.34089357936442716 0.046652093255442346 0.3415382760235046 0.03638653876089847 C 0.34218297268258213 0.02612098426635461 0.34690290728460454 0.016538632510501278 0.35464833896782955 0.009770654163670452 C 0.3707257965619082 -0.004421771239759176 0.3952366266123027 -0.003007684890698296 0.40957525967170916 0.0129395149735098 L 0.5944254735789927 0.22234840015704663 C 0.6012784624874579 0.23007628938691738 0.6047690739911887 0.240216679357361 0.6041247822981535 0.25052534644593255 C 0.6034804906051171 0.26083401353450303 0.5987544267432281 0.2704608612945946 0.5909925410350009 0.2772753208609241 C 0.5839660963413914 0.28360383919186755 0.5748337639240203 0.28708730619643147 0.5653775828221347 0.2870459750245956 Z" fill="#0c4770" transform="matrix(1,0,0,1,0,0)" fill-rule="nonzero"></path></g></g><g><path d=" M -1.9286055530347228 1.1936042383727448 A 3.3931473906487146 3.3931473906487146 0 0 1 4.857689228262706 1.1936042383727448 A 3.3931473906487146 3.3931473906487146 0 0 1 -1.928605553034723 1.1936042383727448 Z M -1.923605553034723 1.1936042383727448 A 3.3881473906487147 3.3881473906487147 0 0 0 4.852689228262706 1.1936042383727448 A 3.3881473906487147 3.3881473906487147 0 0 0 -1.9236055530347231 1.1936042383727448 Z" fill="#001d31" fill-rule="nonzero"></path></g><g transform="matrix(-0.9999946816984786,-0.0032613762062015444,0.0032613762062015444,-0.9999946816984786,-1.9443429853098562,4.013856160058075)"><g clip-path="url(#SvgjsClipPath12819)"><path d=" M -1.2385800847729649 2.040745135104369 C -1.2385800847729649 2.089336007096119 -1.2140413903440899 2.114117959957994 -1.1661791879311898 2.114117959957994 L -1.0843028222639899 2.114117959957994 L -1.0843028222639899 2.195993772765119 C -1.0843028222639899 2.243857633758244 -1.059520869402115 2.268396328187119 -1.010929997410365 2.268396328187119 L -0.927110881439615 2.268396328187119 C -0.8785200094478649 2.268396328187119 -0.8537380565859899 2.243857633758244 -0.8537380565859899 2.195993772765119 L -0.8537380565859899 2.114117959957994 L -0.772105502211865 2.114117959957994 C -0.72424164121874 2.114117959957994 -0.699459688356865 2.089336007096119 -0.699459688356865 2.040745135104369 L -0.699459688356865 1.956926019133619 C -0.699459688356865 1.9085784055748691 -0.72424164121874 1.8835529178499564 -0.772105502211865 1.8835529178499564 L -0.8537380565859899 1.8835529178499564 L -0.8537380565859899 1.801676828612794 C -0.8537380565859899 1.7538143497698566 -0.8785200094478649 1.7292759317710191 -0.927110881439615 1.7292759317710191 L -1.010929997410365 1.7292759317710191 C -1.059520869402115 1.7292759317710191 -1.0843028222639899 1.7538143497698566 -1.0843028222639899 1.801676828612794 L -1.0843028222639899 1.8835529178499564 L -1.1661791879311898 1.8835529178499564 C -1.2140413903440899 1.8835529178499564 -1.2385800847729649 1.9085784055748691 -1.2385800847729649 1.956926019133619 L -1.2385800847729649 2.040745135104369 Z M -1.1885310443334025 2.035642236612119 L -1.1885310443334025 1.962269411758494 C -1.1885310443334025 1.943563391120869 -1.1792988339409773 1.934087369435369 -1.1601051907172024 1.934087369435369 L -1.033768647108615 1.934087369435369 L -1.033768647108615 1.807507843823819 C -1.033768647108615 1.7885571826030064 -1.0242926254231148 1.779324695780544 -1.005827098918115 1.779324695780544 L -0.9322137799318649 1.779324695780544 C -0.9137482534268648 1.779324695780544 -0.904272231741365 1.7885571826030064 -0.904272231741365 1.807507843823819 L -0.904272231741365 1.934087369435369 L -0.7779354117027399 1.934087369435369 C -0.75898336833174 1.934087369435369 -0.749510110946615 1.943563391120869 -0.749510110946615 1.962269411758494 L -0.749510110946615 2.035642236612119 C -0.749510110946615 2.054351021550119 -0.75898336833174 2.063583784802619 -0.7779354117027399 2.063583784802619 L -0.904272231741365 2.063583784802619 L -0.904272231741365 2.190163863274244 C -0.904272231741365 2.2091131423448687 -0.9137482534268648 2.218345905597369 -0.9322137799318649 2.218345905597369 L -1.005827098918115 2.218345905597369 C -1.0242926254231148 2.218345905597369 -1.033768647108615 2.2091131423448687 -1.033768647108615 2.190163863274244 L -1.033768647108615 2.063583784802619 L -1.1601051907172024 2.063583784802619 C -1.1792988339409773 2.063583784802619 -1.1885310443334025 2.054351021550119 -1.1885310443334025 2.035642236612119 Z" fill="#004a80" transform="matrix(1,0,0,1,0,0)" fill-rule="nonzero"></path></g></g><g transform="matrix(0.9999946816984786,-0.0032613762062015444,-0.0032613762062015444,-0.9999946816984786,0.006571248435076171,4.0297288909140985)"><g clip-path="url(#SvgjsClipPath12820)"><path d=" M 3.6283012108719994 2.040745135104369 C 3.6283012108719994 2.089336007096119 3.6528399053008744 2.114117959957994 3.700702107713774 2.114117959957994 L 3.7825784733809744 2.114117959957994 L 3.7825784733809744 2.195993772765119 C 3.7825784733809744 2.243857633758244 3.807360426242849 2.268396328187119 3.855951298234599 2.268396328187119 L 3.9397704142053493 2.268396328187119 C 3.988361286197099 2.268396328187119 4.013143239058974 2.243857633758244 4.013143239058974 2.195993772765119 L 4.013143239058974 2.114117959957994 L 4.094775793433099 2.114117959957994 C 4.142639654426224 2.114117959957994 4.167421607288099 2.089336007096119 4.167421607288099 2.040745135104369 L 4.167421607288099 1.956926019133619 C 4.167421607288099 1.9085784055748691 4.142639654426224 1.8835529178499564 4.094775793433099 1.8835529178499564 L 4.013143239058974 1.8835529178499564 L 4.013143239058974 1.801676828612794 C 4.013143239058974 1.7538143497698566 3.988361286197099 1.7292759317710191 3.9397704142053493 1.7292759317710191 L 3.855951298234599 1.7292759317710191 C 3.807360426242849 1.7292759317710191 3.7825784733809744 1.7538143497698566 3.7825784733809744 1.801676828612794 L 3.7825784733809744 1.8835529178499564 L 3.700702107713774 1.8835529178499564 C 3.6528399053008744 1.8835529178499564 3.6283012108719994 1.9085784055748691 3.6283012108719994 1.956926019133619 L 3.6283012108719994 2.040745135104369 Z M 3.678350251311562 2.035642236612119 L 3.678350251311562 1.962269411758494 C 3.678350251311562 1.943563391120869 3.6875824617039865 1.934087369435369 3.7067761049277617 1.934087369435369 L 3.833112648536349 1.934087369435369 L 3.833112648536349 1.807507843823819 C 3.833112648536349 1.7885571826030064 3.8425886702218492 1.779324695780544 3.8610541967268492 1.779324695780544 L 3.934667515713099 1.779324695780544 C 3.953133042218099 1.779324695780544 3.9626090639035993 1.7885571826030064 3.9626090639035993 1.807507843823819 L 3.9626090639035993 1.934087369435369 L 4.088945883942224 1.934087369435369 C 4.107897927313224 1.934087369435369 4.117371184698349 1.943563391120869 4.117371184698349 1.962269411758494 L 4.117371184698349 2.035642236612119 C 4.117371184698349 2.054351021550119 4.107897927313224 2.063583784802619 4.088945883942224 2.063583784802619 L 3.9626090639035993 2.063583784802619 L 3.9626090639035993 2.190163863274244 C 3.9626090639035993 2.2091131423448687 3.953133042218099 2.218345905597369 3.934667515713099 2.218345905597369 L 3.8610541967268492 2.218345905597369 C 3.8425886702218492 2.218345905597369 3.833112648536349 2.2091131423448687 3.833112648536349 2.190163863274244 L 3.833112648536349 2.063583784802619 L 3.7067761049277617 2.063583784802619 C 3.6875824617039865 2.063583784802619 3.678350251311562 2.054351021550119 3.678350251311562 2.035642236612119 Z" fill="#004a80" transform="matrix(1,0,0,1,0,0)" fill-rule="nonzero"></path></g></g></g><defs><linearGradient id="gradient-00198c8a-127a-4503-8409-5260729a03f7" x1="0" y1="0" x2="1" y2="1"><stop stop-color="#225777" offset="0"></stop><stop stop-color="#173054" offset="1"></stop></linearGradient><clipPath id="SvgjsClipPath12818"><path d=" M 0 0 h 2.9290836752279836 v 2.387208476745489 h -2.9290836752279836 Z"></path></clipPath><clipPath id="SvgjsClipPath128147c966085-c1ae-43b1-ad56-bd86dd327208"><path d=" M 0 0 L 2.9290836752279836 0 L 2.9290836752279836 2.387208476745489 L 0 2.387208476745489 Z"></path></clipPath><clipPath id="SvgjsClipPath12819"><path d=" M -1.3559008627084899 1.621511340231869 h 0.7740041049999998 v 0.7740041049999998 h -0.7740041049999998 Z"></path></clipPath><clipPath id="SvgjsClipPath12820"><path d=" M 3.510980432936474 1.621511340231869 h 0.7740041049999998 v 0.7740041049999998 h -0.7740041049999998 Z"></path></clipPath></defs></svg>